<svg width="44" height="44" viewBox="0 0 44 44" fill="none" xmlns="http://www.w3.org/2000/svg">
<g clip-path="url(#clip0_4995_118)">
<path d="M33.9167 43.9987H10.0833C7.557 43.9987 5.5 41.9417 5.5 39.4154V13.7487C5.5 13.2427 5.91067 12.832 6.41667 12.832C6.92267 12.832 7.33333 13.2427 7.33333 13.7487V39.4154C7.33333 40.9315 8.56717 42.1654 10.0833 42.1654H33.9167C35.4328 42.1654 36.6667 40.9315 36.6667 39.4154V13.7487C36.6667 13.2427 37.0773 12.832 37.5833 12.832C38.0893 12.832 38.5 13.2427 38.5 13.7487V39.4154C38.5 41.9417 36.443 43.9987 33.9167 43.9987Z" fill="#2A2D32"/>
<path d="M41.2499 14.6667H2.74992C2.24392 14.6667 1.83325 14.256 1.83325 13.75V10.0833C1.83325 7.557 3.89025 5.5 6.41659 5.5H37.5833C40.1096 5.5 42.1666 7.557 42.1666 10.0833V13.75C42.1666 14.256 41.7559 14.6667 41.2499 14.6667ZM3.66659 12.8333H40.3333V10.0833C40.3333 8.56717 39.0994 7.33333 37.5833 7.33333H6.41659C4.90042 7.33333 3.66659 8.56717 3.66659 10.0833V12.8333Z" fill="#2A2D32"/>
<path d="M30.2499 7.33333C29.7439 7.33333 29.3333 6.92267 29.3333 6.41667V2.75C29.3333 2.244 28.9226 1.83333 28.4166 1.83333H15.5833C15.0773 1.83333 14.6666 2.244 14.6666 2.75V6.41667C14.6666 6.92267 14.2559 7.33333 13.7499 7.33333C13.2439 7.33333 12.8333 6.92267 12.8333 6.41667V2.75C12.8333 1.23383 14.0671 0 15.5833 0H28.4166C29.9328 0 31.1666 1.23383 31.1666 2.75V6.41667C31.1666 6.92267 30.7559 7.33333 30.2499 7.33333Z" fill="#2A2D32"/>
<path d="M21.9999 36.668C21.4939 36.668 21.0833 36.2573 21.0833 35.7513V21.0846C21.0833 20.5786 21.4939 20.168 21.9999 20.168C22.5059 20.168 22.9166 20.5786 22.9166 21.0846V35.7513C22.9166 36.2573 22.5059 36.668 21.9999 36.668Z" fill="#2A2D32"/>
<path d="M13.7499 36.668C13.2439 36.668 12.8333 36.2573 12.8333 35.7513V21.0846C12.8333 20.5786 13.2439 20.168 13.7499 20.168C14.2559 20.168 14.6666 20.5786 14.6666 21.0846V35.7513C14.6666 36.2573 14.2559 36.668 13.7499 36.668Z" fill="#2A2D32"/>
<path d="M30.2499 36.668C29.7439 36.668 29.3333 36.2573 29.3333 35.7513V21.0846C29.3333 20.5786 29.7439 20.168 30.2499 20.168C30.7559 20.168 31.1666 20.5786 31.1666 21.0846V35.7513C31.1666 36.2573 30.7559 36.668 30.2499 36.668Z" fill="#2A2D32"/>
</g>
<defs>
<clipPath id="clip0_4995_118">
<rect width="44" height="44" fill="white"/>
</clipPath>
</defs>
</svg>
