<svg width="44" height="44" viewBox="0 0 44 44" fill="none" xmlns="http://www.w3.org/2000/svg">
<g clip-path="url(#clip0_4925_160)">
<path d="M43.0435 0H35.3913C34.8623 0 34.4348 0.427501 34.4348 0.956522V8.212L8.1407 34.4348H0.956522C0.427501 34.4348 0 34.8623 0 35.3913V43.0435C0 43.5725 0.427501 44 0.956522 44H8.6087C9.13772 44 9.56522 43.5725 9.56522 43.0435V35.7155L35.7865 9.56522H43.0435C43.5725 9.56522 44 9.13772 44 8.6087V0.956522C44 0.427501 43.5725 0 43.0435 0ZM7.65217 42.087H1.91304V36.3478H7.65217V42.087ZM42.087 7.65217H36.3478V1.91304H42.087V7.65217Z" fill="#2A2D32"/>
</g>
<defs>
<clipPath id="clip0_4925_160">
<rect width="44" height="44" fill="white"/>
</clipPath>
</defs>
</svg>
