<svg width="44" height="44" viewBox="0 0 44 44" fill="none" xmlns="http://www.w3.org/2000/svg">
<g clip-path="url(#clip0_4925_160)">
<path d="M43.0435 0H35.3913C34.8623 0 34.4348 0.427501 34.4348 0.956522V8.212L8.1407 34.4348H0.956522C0.427501 34.4348 0 34.8623 0 35.3913V43.0435C0 43.5725 0.427501 44 0.956522 44H8.6087C9.13772 44 9.56522 43.5725 9.56522 43.0435V35.7155L35.7865 9.56522H43.0435C43.5725 9.56522 44 9.13772 44 8.6087V0.956522C44 0.427501 43.5725 0 43.0435 0ZM7.65217 42.087H1.91304V36.3478H7.65217V42.087ZM42.087 7.65217H36.3478V1.91304H42.087V7.65217Z" fill="#2A2D32"/>
<path d="M27.2929 42.2929C26.9024 42.6834 26.9024 43.3166 27.2929 43.7071C27.6834 44.0976 28.3166 44.0976 28.7071 43.7071L27.2929 42.2929ZM44 28C44 27.4477 43.5523 27 43 27H34C33.4477 27 33 27.4477 33 28C33 28.5523 33.4477 29 34 29H42V37C42 37.5523 42.4477 38 43 38C43.5523 38 44 37.5523 44 37V28ZM28.7071 43.7071L43.7071 28.7071L42.2929 27.2929L27.2929 42.2929L28.7071 43.7071Z" fill="#2A2D32"/>
</g>
<defs>
<clipPath id="clip0_4925_160">
<rect width="44" height="44" fill="white"/>
</clipPath>
</defs>
</svg>
