<svg width="44" height="44" viewBox="0 0 44 44" fill="none" xmlns="http://www.w3.org/2000/svg">
<g clip-path="url(#clip0_4925_224)">
<g clip-path="url(#clip1_4925_224)">
<path d="M22 0C21.472 0 21.0435 0.428543 21.0435 0.956532V43.0426C21.0435 43.5706 21.472 43.9991 22 43.9991C22.528 43.9991 22.9565 43.5706 22.9565 43.0426V0.956532C22.9564 0.428543 22.528 0 22 0Z" fill="#2A2D32"/>
<path d="M43.0431 21.043H0.95702C0.429031 21.043 0.000488281 21.4715 0.000488281 21.9995C0.000488281 22.5275 0.429031 22.956 0.95702 22.956H43.0431C43.5711 22.956 43.9996 22.5275 43.9996 21.9995C43.9996 21.4715 43.5711 21.043 43.0431 21.043Z" fill="#2A2D32"/>
<path d="M28.4162 6.01879L22.6772 0.279777C22.3042 -0.0932589 21.6977 -0.0932589 21.3247 0.279777L15.5857 6.01879C15.2126 6.39182 15.2126 6.99827 15.5857 7.37131C15.9587 7.74435 16.5652 7.74435 16.9382 7.37131L22 2.30762L27.0618 7.37131C27.2493 7.55684 27.4941 7.65064 27.739 7.65064C27.9839 7.65064 28.2287 7.55693 28.4162 7.37131C28.7893 6.99827 28.7893 6.39182 28.4162 6.01879Z" fill="#2A2D32"/>
<path d="M28.4143 36.6274C28.0412 36.2544 27.4348 36.2544 27.0618 36.6274L21.9999 41.6892L16.9363 36.6274C16.5632 36.2544 15.9568 36.2544 15.5837 36.6274C15.2107 37.0005 15.2107 37.6069 15.5837 37.98L21.3227 43.719C21.5102 43.9045 21.7551 43.9983 21.9999 43.9983C22.2448 43.9983 22.4896 43.9046 22.6753 43.719L28.4143 37.98C28.7873 37.6068 28.7873 37.0005 28.4143 36.6274Z" fill="#2A2D32"/>
<path d="M43.7201 21.3235L37.9811 15.5845C37.6081 15.2114 37.0016 15.2114 36.6286 15.5845C36.2555 15.9575 36.2555 16.564 36.6286 16.937L41.6904 21.9988L36.6267 27.0625C36.2537 27.4355 36.2537 28.042 36.6267 28.415C36.8142 28.6005 37.059 28.6943 37.3039 28.6943C37.5488 28.6943 37.7936 28.6006 37.9811 28.415L43.7201 22.676C44.0932 22.303 44.0932 21.6965 43.7201 21.3235Z" fill="#2A2D32"/>
<path d="M2.3095 21.9988L7.37131 16.937C7.74435 16.564 7.74435 15.9575 7.37131 15.5845C6.99827 15.2114 6.39182 15.2114 6.01879 15.5845L0.279777 21.3235C-0.0932589 21.6965 -0.0932589 22.303 0.279777 22.676L6.01879 28.415C6.20629 28.6005 6.4511 28.6943 6.69599 28.6943C6.94088 28.6943 7.18569 28.6006 7.37131 28.4131C7.74435 28.0401 7.74435 27.4336 7.37131 27.0606L2.3095 21.9988Z" fill="#2A2D32"/>
</g>
<path d="M32.0833 22.9154H11.9167C11.4107 22.9154 11 22.5047 11 21.9987C11 21.4927 11.4107 21.082 11.9167 21.082H32.0833C32.5893 21.082 33 21.4927 33 21.9987C33 22.5047 32.5893 22.9154 32.0833 22.9154Z" fill="#2A2D32"/>
<path d="M21.9999 33C21.4939 33 21.0833 32.5893 21.0833 32.0833V11.9167C21.0833 11.4107 21.4939 11 21.9999 11C22.5059 11 22.9166 11.4107 22.9166 11.9167V32.0833C22.9166 32.5893 22.5059 33 21.9999 33Z" fill="#2A2D32"/>
</g>
<defs>
<clipPath id="clip0_4925_224">
<rect width="44" height="44" fill="white"/>
</clipPath>
<clipPath id="clip1_4925_224">
<rect width="44" height="44" fill="white"/>
</clipPath>
</defs>
</svg>
