<svg width="44" height="44" viewBox="0 0 44 44" fill="none" xmlns="http://www.w3.org/2000/svg">
<g clip-path="url(#clip0_4925_129)">
<path d="M22 44C9.86883 44 0 34.1312 0 22C0 9.86883 9.86883 0 22 0C34.1312 0 44 9.86883 44 22C44 34.1312 34.1312 44 22 44ZM22 1.83333C10.8808 1.83333 1.83333 10.8808 1.83333 22C1.83333 33.1192 10.8808 42.1667 22 42.1667C33.1192 42.1667 42.1667 33.1192 42.1667 22C42.1667 10.8808 33.1192 1.83333 22 1.83333Z" fill="#2A2D32"/>
<path d="M32.0833 22.9154H11.9167C11.4107 22.9154 11 22.5047 11 21.9987C11 21.4927 11.4107 21.082 11.9167 21.082H32.0833C32.5893 21.082 33 21.4927 33 21.9987C33 22.5047 32.5893 22.9154 32.0833 22.9154Z" fill="#2A2D32"/>
<path d="M21.9999 33C21.4939 33 21.0833 32.5893 21.0833 32.0833V11.9167C21.0833 11.4107 21.4939 11 21.9999 11C22.5059 11 22.9166 11.4107 22.9166 11.9167V32.0833C22.9166 32.5893 22.5059 33 21.9999 33Z" fill="#2A2D32"/>
</g>
<defs>
<clipPath id="clip0_4925_129">
<rect width="44" height="44" fill="white"/>
</clipPath>
</defs>
</svg>
