<svg width="44" height="44" viewBox="0 0 44 44" fill="none" xmlns="http://www.w3.org/2000/svg">
<g clip-path="url(#clip0_4925_178)">
<path d="M39.4167 36.668H35.75C35.244 36.668 34.8333 36.2573 34.8333 35.7513C34.8333 35.2453 35.244 34.8346 35.75 34.8346H39.4167C40.9328 34.8346 42.1667 33.6008 42.1667 32.0846V11.918C42.1667 10.4018 40.9328 9.16797 39.4167 9.16797H18.3333C18.0895 9.16797 17.8567 9.0708 17.6843 8.9003L14.2872 5.5013H4.58333C3.06717 5.5013 1.83333 6.73514 1.83333 8.2513V32.0846C1.83333 33.6008 3.06717 34.8346 4.58333 34.8346H8.25C8.756 34.8346 9.16667 35.2453 9.16667 35.7513C9.16667 36.2573 8.756 36.668 8.25 36.668H4.58333C2.05517 36.668 0 34.611 0 32.0846V8.2513C0 5.72497 2.05517 3.66797 4.58333 3.66797H14.6667C14.9105 3.66797 15.1433 3.76514 15.3157 3.93564L18.7128 7.33464H39.4167C41.9448 7.33464 44 9.39164 44 11.918V32.0846C44 34.611 41.9448 36.668 39.4167 36.668Z" fill="#2A2D32"/>
<path d="M21.9999 34.3737C21.4939 34.3737 21.0833 33.963 21.0833 33.457V19.2487C21.0833 18.7427 21.4939 18.332 21.9999 18.332C22.5059 18.332 22.9166 18.7427 22.9166 19.2487V33.457C22.9166 33.9649 22.5059 34.3737 21.9999 34.3737Z" fill="#2A2D32"/>
<path d="M22 34.8333C21.7653 34.8333 21.5306 34.7434 21.351 34.5656L16.7676 29.9823C16.4101 29.6248 16.4101 29.0436 16.7676 28.6861C17.1251 28.3286 17.7063 28.3286 18.0638 28.6861L22 32.6204L25.9343 28.6861C26.2918 28.3286 26.873 28.3286 27.2305 28.6861C27.588 29.0436 27.588 29.6248 27.2305 29.9823L22.6471 34.5656C22.4693 34.7434 22.2346 34.8333 22 34.8333Z" fill="#2A2D32"/>
<path d="M28.4166 40.3333H15.5833C14.0671 40.3333 12.8333 39.0995 12.8333 37.5833V33.9167C12.8333 33.4107 13.2439 33 13.7499 33C14.2559 33 14.6666 33.4107 14.6666 33.9167V37.5833C14.6666 38.0893 15.0791 38.5 15.5833 38.5H28.4166C28.9208 38.5 29.3333 38.0893 29.3333 37.5833V33.9167C29.3333 33.4107 29.7439 33 30.2499 33C30.7559 33 31.1666 33.4107 31.1666 33.9167V37.5833C31.1666 39.0995 29.9328 40.3333 28.4166 40.3333Z" fill="#2A2D32"/>
</g>
<defs>
<clipPath id="clip0_4925_178">
<rect width="44" height="44" fill="white"/>
</clipPath>
</defs>
</svg>
