<svg width="44" height="44" viewBox="0 0 44 44" fill="none" xmlns="http://www.w3.org/2000/svg">
<g clip-path="url(#clip0_4925_214)">
<path d="M22 44C9.86883 44 0 34.1312 0 22C0 9.86883 9.86883 0 22 0C34.1312 0 44 9.86883 44 22C44 34.1312 34.1312 44 22 44ZM22 1.83333C10.8808 1.83333 1.83333 10.8808 1.83333 22C1.83333 33.1192 10.8808 42.1667 22 42.1667C33.1192 42.1667 42.1667 33.1192 42.1667 22C42.1667 10.8808 33.1192 1.83333 22 1.83333Z" fill="#2A2D32"/>
<path d="M32.0833 33.0013H11.9167C11.4107 33.0013 11 32.5906 11 32.0846C11 31.5786 11.4107 31.168 11.9167 31.168H32.0833C32.5893 31.168 33 31.5786 33 32.0846C33 32.5906 32.5893 33.0013 32.0833 33.0013Z" fill="#2A2D32"/>
<path d="M21.9999 29.3333C21.4939 29.3333 21.0833 28.9227 21.0833 28.4167V10.5417C21.0833 10.0357 21.4939 9.625 21.9999 9.625C22.5059 9.625 22.9166 10.0357 22.9166 10.5417V28.4167C22.9166 28.9227 22.5059 29.3333 21.9999 29.3333Z" fill="#2A2D32"/>
<path d="M28.4166 17.4166C28.1819 17.4166 27.9473 17.3268 27.7676 17.1489L21.9999 11.3794L16.2323 17.1489C15.8748 17.5064 15.2936 17.5064 14.9361 17.1489C14.5786 16.7914 14.5786 16.2103 14.9361 15.8528L21.3528 9.43609C21.7103 9.07859 22.2914 9.07859 22.6489 9.43609L29.0656 15.8528C29.4231 16.2103 29.4231 16.7914 29.0656 17.1489C28.8859 17.3268 28.6513 17.4166 28.4166 17.4166Z" fill="#2A2D32"/>
</g>
<defs>
<clipPath id="clip0_4925_214">
<rect width="44" height="44" fill="white"/>
</clipPath>
</defs>
</svg>
